/* XPM */
static char *result[] = {
/* columns rows colors chars-per-pixel */
"64 64 184 2 ",
"   c #3F2101",
".  c #432506",
"X  c #4E2D13",
"o  c #502913",
"O  c #4E3316",
"+  c #4A3A18",
"@  c #503316",
"#  c #52351A",
"$  c #5A371B",
"%  c #553B1C",
"&  c #68341D",
"*  c #713922",
"=  c #4D451D",
"-  c #5B4226",
";  c #4D5724",
":  c #655336",
">  c #4C652A",
",  c #4B7C34",
"<  c #6D783A",
"1  c #707439",
"2  c #567D74",
"3  c #5B7F73",
"4  c #607D75",
"5  c #617A79",
"6  c #9F1610",
"7  c #A11914",
"8  c #A31E19",
"9  c #A4221D",
"0  c #8F3025",
"q  c #963026",
"w  c #A62721",
"e  c #A92424",
"r  c #A62923",
"t  c #A92A27",
"y  c #AF2729",
"u  c #AA2D29",
"i  c #B12528",
"p  c #A43428",
"a  c #AA312C",
"s  c #A6392E",
"d  c #AD3631",
"f  c #AC3B33",
"g  c #B03E3A",
"h  c #8F482B",
"j  c #9B402E",
"k  c #924E32",
"l  c #8F5032",
"z  c #AB4436",
"x  c #AC4738",
"c  c #AC4C3B",
"v  c #B1423D",
"b  c #AD533F",
"n  c #B54A47",
"m  c #AE5541",
"M  c #AE5C44",
"N  c #B8534F",
"B  c #B95753",
"V  c #BA5955",
"C  c #BC5E5A",
"Z  c #9C794A",
"A  c #AE6446",
"S  c #AF6549",
"D  c #AE6B4B",
"F  c #B06B4C",
"G  c #BE625F",
"H  c #B17954",
"J  c #B27B55",
"K  c #C06865",
"L  c #C97B78",
"P  c #32A12D",
"I  c #38A333",
"U  c #3EA639",
"Y  c #4A8C39",
"T  c #40A73C",
"R  c #42A83E",
"E  c #3FB848",
"W  c #4A9C40",
"Q  c #519F43",
"!  c #519B56",
"~  c #54925E",
"^  c #4CA745",
"/  c #46AC44",
"(  c #4AAC46",
")  c #4CAD48",
"_  c #52AA49",
"`  c #44B246",
"'  c #4AB047",
"]  c #4BB34A",
"[  c #58B255",
"{  c #6EA54E",
"}  c #578D63",
"|  c #569161",
" . c #5F8072",
".. c #628B67",
"X. c #6D836F",
"o. c #73856F",
"O. c #7B866D",
"+. c #788A6A",
"@. c #649062",
"#. c #628072",
"$. c #6A8270",
"%. c #708470",
"&. c #66B964",
"*. c #6EBC6C",
"=. c #79C277",
"-. c #98995B",
";. c #A28155",
":. c #AB8656",
">. c #AF8E5F",
",. c #B38259",
"<. c #B18D5B",
"1. c #A3975E",
"2. c #B5905C",
"3. c #84886C",
"4. c #8A896B",
"5. c #9F8F67",
"6. c #928B69",
"7. c #9C8E68",
"8. c #B48E61",
"9. c #BD856C",
"0. c #AE9463",
"q. c #A99664",
"w. c #B59464",
"e. c #BA9563",
"r. c #B69966",
"t. c #BA9867",
"y. c #B79C69",
"u. c #B99A6C",
"i. c #B7A16B",
"p. c #A1A770",
"a. c #C29464",
"s. c #C2A77F",
"d. c #A59787",
"f. c #A69788",
"g. c #AFAA98",
"h. c #BBB0A4",
"j. c #CC8582",
"k. c #CE8A88",
"l. c #D08D8B",
"z. c #D39392",
"x. c #D49896",
"c. c #D69F9B",
"v. c #C5A982",
"b. c #DCABAA",
"n. c #C9BCAC",
"m. c #DFB3B2",
"M. c #E2BAB9",
"N. c #86C884",
"B. c #8CCA8B",
"V. c #90CC8F",
"C. c #95CE94",
"Z. c #98D097",
"A. c #A5D5A3",
"S. c #A9D8A8",
"D. c #BBE0BB",
"F. c #D9C7AF",
"G. c #D9C9B0",
"H. c #DFDAD4",
"J. c #E6C4C3",
"K. c #E9CAC9",
"L. c #F0CACE",
"P. c #ECD4D3",
"I. c #E2DDD8",
"U. c #F1DFDF",
"Y. c #C4E4C4",
"T. c #CCE7CB",
"R. c #CDE8CD",
"E. c #D3EBD2",
"W. c #DBE8D4",
"Q. c #DCEEDB",
"!. c #DFF0DF",
"~. c #F5E6E6",
"^. c #F5EDEC",
"/. c #F8EFEF",
"(. c #E1F2E2",
"). c #ECFBEE",
"_. c #F6F4EF",
"`. c #F9F5F2",
"'. c #F9F7F4",
"]. c #F3F9F3",
"[. c #FCF9F9",
"{. c #FDFBFB",
"}. c #FDFDFC",
"|. c white",
/* pixels */
"|.|.|.|.|.|.|.|.|.|.|.|.|.|.|.|.|.|.|.|.|.|.|.|.|.|.|.|.|.|.|.|.|.{.|.|.|.|.|.|.|.|.|.|.|.|.|.|.|.|.|.|.|.|.|.|.|.|.|.|.|.|.|.|.",
"|.|.|.|.|.|.|.|.|.|.|.|.|.|.|.|.|.|.|.|.|.|.|.|.|.|.|.|.{.|.|.{.{.|.|.|.|.|.|.|.|.|.|.|.|.|.|.|.|.|.|.|.|.|.|.|.|.|.|.|.|.|.|.|.",
"|.|.|.|.|.|.|.|.|.|.|.|.|.|.|.|.|.|.|.|.|.|.|.|.|.|.|.|.|.|.|.|.|.|.|.|.|.|.|.|.|.|.|.|.|.|.|.|.|.|.|.|.|.|.|.|.|.|.|.|.|.|.|.|.",
"|.|.|.|.|.|.|.|.|.|.|.|.|.|.|.|.|.|.|.|.|.|.|.|.|.|.|.{.|.|.J.b.b.P.|.{.{.|.|.|.|.|.|.|.|.|.|.|.|.|.|.|.|.|.|.|.|.|.|.|.|.|.|.|.",
"|.|.|.|.|.|.|.|.|.|.|.|.|.|.|.|.|.|.|.|.|.|.|.|.|.|.|.{.|.|.V 8 6 j.|.{.|.|.|.|.|.|.|.|.|.|.|.|.|.|.|.|.|.|.|.|.|.|.|.|.|.|.|.|.",
"|.|.|.|.|.|.|.|.|.|.|.|.|.|.|.|.|.|.|.|.|.|.|.|.|.|.|.{.{.|.K r w k.|.[.{.|.|.|.|.|.|.|.|.|.|.|.|.|.|.|.|.|.|.|.|.|.|.|.|.|.|.|.",
"|.|.|.|.|.|.|.|.|.|.|.|.|.|.|.|.|.|.|.|.|.|.|.|.{.|.{.|.{.|.K w 9 k.|.{.{.|.|.{.|.|.|.|.|.|.|.|.|.|.|.|.|.|.|.|.|.|.|.|.|.|.|.|.",
"|.|.|.|.|.|.|.|.|.|.|.|.|.|.|.|.|.|.|.|.|.|.|.|.|.|.`.k.L j.n r r N k.L x.|.{.|.|.|.|.|.|.|.|.|.|.|.|.|.|.|.|.|.|.|.|.|.|.|.|.|.",
"|.|.|.|.|.|.|.|.|.|.|.|.|.|.|.|.|.|.|.|.|.|.|.|.{.|./.a 8 9 t a a r 9 6 n |.|.|.|.|.|.|.|.|.|.|.|.|.|.|.|.|.|.|.|.|.|.|.|.|.|.|.",
"|.|.|.|.|.|.|.|.|.|.|.|.|.|.|.|.|.|.|.|.|.|.|.{.{.|./.z a a a a a a d u V |.|.|.{.|.|.|.|.|.|.|.|.|.|.|.|.|.|.|.|.|.|.|.|.|.|.|.",
"|.|.|.|.|.|.|.|.|.|.|.|.|.|.|.|.|.|.|.|.|.|.|.|.|.|.`.g t a u u u u a w B |.{.|.|.|.|.|.|.|.|.|.|.|.|.|.|.|.|.|.|.|.|.|.|.|.|.|.",
"|.|.|.|.|.|.|.|.|.|.|.|.|.|.|.|.|.|.|.|.|.{.|.P.B C V a u u S J ,.m u u f G V G ^.|.{.|.|.|.|.|.|.|.|.|.|.|.|.|.|.|.|.|.|.|.|.|.",
"|.|.|.|.|.|.|.|.|.|.|.|.|.|.|.|.|.|.|.|.|.{.|.J.8 w w u a t H u.y.D t u u w r t ~.{.{.|.|.|.|.|.|.|.|.|.|.|.|.|.|.|.|.|.|.|.|.|.",
"|.|.|.|.|.|.|.|.|.|.|.|.|.|.|.|.|.|.|.|.|.{.|.K.r d a u u t H w.r.S t u u a u f ~.|.|.|.|.|.|.|.|.|.|.|.|.|.|.|.|.|.|.|.|.|.|.|.",
"|.|.|.|.|.|.|.|.|.|.|.{.|.|.].].].{.|.|.`./.{.M.r a a a d u H w.r.D u d a a u d P.[./.{.|.|.|.|.|.|.|.|.|.|.|.|.|.|.|.|.|.|.|.|.",
"|.|.|.|.|.|.|.|.|.|.|.|.|.].[ [ ) E.|.|.x.a n f u a d ,.8.<.w.w.w.8.<.8.H u a a g z a M.|.{.|.|.|.|.|.|.|.|.|.|.|.|.|.|.|.|.|.|.",
"|.|.|.|.|.|.|.|.{.|.|.{.{.).) / U R.{.|.l.8 u u a u a 8.r.w.w.w.w.w.w.y.H u a a u a 9 m.|.{.|.|.{.|.|.|.|.|.|.|.|.|.|.|.|.|.|.|.",
"|.|.|.|.|.|.|.|.|.|.|.|.|.).[ ( / E.|.|.z.8 d u t t a 8.w.w.e.e.e.e.w.r.H t t t a a 9 m.|.{.|.|.|.|.|.|.|.|.|.|.|.|.|.|.|.|.|.|.",
"|.|.|.|.|.|.|.|.{.|.].R.E.Y._ / / S.L.L.L w a a x x x <.w.w.q.5.5.q.w.w.,.x c z a a w z.P.J.U.|.|.{.|.|.|.|.|.|.|.|.|.|.|.|.|.|.",
"|.|.|.|.|.|.|.|.{.|.Y.I / R ) ( / h i 8 r a t c r.r.w.w.w.e.%.2 2 3.e.w.w.r.w.w.s u a r u 6 L |.{.|.|.|.|.|.|.|.|.|.|.|.|.|.|.|.",
"|.|.|.|.|.|.|.|.{.|.Y.T ) ( ( ( / k u a u a t x r.w.w.w.w.e.o.3  .3.e.w.w.w.w.8.d u a a d 9 j.|.{.{.|.|.{.|.|.|.|.|.|.|.|.|.|.|.",
"|.|.|.|.|.|.|.|.{.|.Y.U ) ( ` ' E l y a u t e z w.w.w.e.e.a.+.3 2 3.a.e.e.w.w.w.s t r u d 9 j.{.{.{.|.|.|.|.|.|.|.|.|.|.|.|.|.|.",
"|.|.|.|.|.|.|.|.{.|.Y.U ) ^ < 1 < j u u z M m S w.w.2.6.6.6.X.3 2 o.6.4.6.e.w.w.M m M d u r V b.c.m.|.|.|.|.|.|.|.|.|.|.|.|.|.|.",
"|.|.|.|.|.{.|.|.|.|.Y.U ) Q u i y u a t S i.r.r.w.w.w.3 2 2 3  .4 2  .2 X.w.w.w.r.r.i.m t a t r 7 n |.|.{.|.|.|.|.|.|.|.|.|.|.|.",
"|.{.|.|.{.{.{.{.{.{.Y.U ] Q s a a a a t A r.w.w.w.w.w.4  .#. . .#.#.3 4 o.w.0.2.w.<.w.m t a d d t B |.|.{.|.|.|.|.|.|.|.|.|.|.|.",
"|.|.|.{.|.|.|.|.{.{.Y.U ) Q q y t u t e M y.w.w.w.w.0.4 2 3 3 3 2  . .2 $.e.w.w.w.w.r.c e t t u 9 N {.|.|.|.|.|.|.|.|.|.|.|.|.|.",
"|.{.|.|.A.B.V.B.B.C.=./ ' ^ D F D D D S ,.w.w.w.w.w.2.6.6.6.6.6.6.6.6.6.7.w.w.w.w.w.w.H F F F F A 9.|.|.{.|.|.|.|.|.|.|.|.|.|.|.",
"|.|.{.|.&.P T U U I / ] ) _ q.r.r.y.r.r.w.w.w.w.w.w.e.e.e.e.e.e.e.e.e.e.e.w.w.w.w.w.w.r.r.r.r.y.0.v.|.|.|.|.|.|.|.|.|.|.|.|.|.|.",
"|.|.{.|.*./ ) ) ( ) ( ( ( _ 0.e.w.w.w.w.w.w.w.e.w.w.w.w.w.w.w.w.0.w.w.w.w.w.w.w.w.e.w.w.w.w.w.e.0.s.|.|.|.|.|.|.|.|.|.|.|.|.|.|.",
"|.{.|.|.*.T ) ( ( ( ( ( / _ 0.w.w.w.w.w.w.w.w.w.w.w.w.w.w.w.w.w.w.w.w.w.w.w.w.w.w.w.w.w.<.w.w.w.<.s.|.|.{.|.|.|.|.|.|.|.|.|.|.|.",
"|.{.|.|.*.T ) ( ( ( ( ( / _ 0.e.w.O.$.$.X.X.$.O.e.w.0.o.X.X.X.X.X.X.X.X.O.w.w.w.o.X.X.X.X.$.4.e.<.s.|.|.|.|.|.|.|.|.|.|.|.|.|.|.",
"|.|.{.|.*.T ) ( ( ( ) ( / _ 0.w.e.%.2  .3 3 2 o.w.e.0.4 2 3 3 3  .2  .2 X.w.w.0.#.2 3 3 3 2 3.e.0.s.|.|.|.|.|.|.|.|.|.|.|.|.|.|.",
"|.{.|.|.*.R ( ) ( ( ( ( / _ 0.e.w.o.3 #. . .3 o.w.w.0.$.3  . . .3 #.#.2 o.w.w.w.$.3 4 #.#.2 3.e.0.s.|.|.{.|.|.|.|.|.|.|.|.|.|.|.",
"|.|.|.|.*.R ( ( ( ( ( ( / _ 0.w.e.o.3  . . .3 o.w.w.>.$.3  . .#. . .#.2 o.w.w.w.$.3 #.#.#.2 3.e.<.v.|.|.|.|.|.|.|.|.|.|.|.|.|.|.",
"|.|.{.|.*.R ) ( ) ( ( ( ( _ 0.w.e.o.3 3  . .3 o.w.e.0.4  .#. . . . . . .X.2.w.0.$.3  . .#.2 3.w.w.v.|.|.{.|.|.|.|.|.|.|.|.|.|.|.",
"|.|.|.|.*./ ) ] ( ( ( ( / _ 0.e.w.o.3  . . .3 o.w.w.0.$.3  . . . . . .2 o.w.w.w.#.2  . . . .3.w.w.i.[.}.{.{.|.|.|.|.|.|.|.|.|.|.",
"|.{.|.|.&.I U / ( ( ( ( ( _ 0.w.e.o.3  . . .3 o.e.e.0.$.3 #. . . . .#.3 X.w.w.w.$.3 3  .#.3 4.a.8.v.|.{.|.|.|.|.|.|.|.|.|.|.|.|.",
"|.|.{.|.B.=.=.[ / ( ( ( / _ 0.w.e.o.3  . . .3 o.w.w.0.4 3  . . . . . .3 o.w.w.0.#.3 #.#.#.3 +.-.-.p.R.R.R.].|.|.|.|.|.|.|.|.|.|.",
"|.|.|.|.{.{.|.Z.U ) ( ( / _ 0.e.e.o.3 3  . .3 o.w.w.w.#.3 #.#.4  . .#.#.X.e.w.w.$.2  . . .2 ~ ` / / / R / (.|.{.|.|.|.|.|.|.|.|.",
"|.|.{.|.|.{.|.Z.U ^ ( ( / _ 0.w.e.o.3 #.#.4 3 o.w.w.0.$.3 #. .4  . .4 2 o.w.w.0.$. . .#.#.5 ~ / / ) / / / Q.|.{.{.{.{.{.|.|.|.|.",
"|.|.|.|.{.{.{.Z.U ) ( ( / _ 0.w.e.X. . .2  .2 X.e.w.0.3 3 3 2 2 2 2 2 2 X.e.w.w. .2 2  .#.5 | ` ( ( ( ( / (.|.|.{.|.{.{.{.|.|.|.",
"|.|.|.|.|.{.{.Z.U ) ( ( ( _ 0.e.w.6.3.4.O.3.3.6.e.w.w.4.3.3.4.4.3.4.3.3.4.w.w.w.4.3.4.@.! ~ ! ( ( ( ( / ( C.S.A.A.S.A.Y.|.{.{.|.",
"|.|.|.|.{.{.|.Z.U ] ( ( / _ 0.w.w.2.e.e.e.e.e.w.w.w.w.e.e.e.e.e.e.e.e.e.e.w.w.w.e.e.e.{ R ' / ( ( ( / ) ( T U U U U P N.|.{.|.|.",
"|.|.|.|.{.{.{.Z.U _ ) ( ( _ 0.w.w.w.w.w.w.w.w.w.w.w.w.w.w.w.w.w.2.w.w.w.w.w.w.w.w.w.9.{ / _ ( ( ( ( / ) ) ^ ^ ) ) ) / B.|.{.{.|.",
"|.|.|.|.|.{.|.V.P U / ( / _ 0.w.2.e.e.e.e.e.e.e.w.w.w.r.r.w.r.t.t.t.r.r.r.w.w.w.w.w.a.{ ( / ( ( ( ( ( ( ( ' ] ] ) / U B.|.{.{.{.",
"|.|.|.|.{.|.{.!.D.T.Z.T ( _ 0.w.w.4.o.+.+.+.O.3.w.w.w.b c b c c c c c x M w.w.w.O.+.O...} } ! ' ( ( ( ( ) > ; ; Y ] U B.|.{.|.|.",
"|.|.|.|.|.|.{.{.{.|.Y.T ( _ 0.e.e.X.2 3 3 3 2 4 w.w.<.a t t t t t t t t z w.e.0.#.3 3 2 4 5 | R ( ^ ( ( / + o o , ' U B.{.{.{.|.",
"|.|.|.|.|.|.|.{.{.|.Y.T ( _ 0.w.e.o. .4 #.4 4 +.e.w.8.d a a a a a a a u z w.w.w.$.3 #.#.#.3 ~ ' ( ( ( ( ^ = @ # , ] I B.|.{.|.|.",
"|.|.|.|.|.|.|.|.{.|.Y.U ] ^ 0.e.e.o. . . . .2 o.w.w.8.d t u u a a u u t z w.w.0.X.3  . .3 3 ~ ' ( / / / ( = o X , ' I B.|.{.|.|.",
"|.|.|.|.|.|.|.|.{.|.].!.(.W.y.w.e.o.2 #. . . .o.e.w.0.& $ # q u a u d u z r.w.8.#.3  .#.#.3 +.1.0.-./ ) ( = # . g.).Q.).|.|.{.|.",
"|.|.|.|.|.|.|.|.|.|.|.{.|.`.u.w.w.%.2  . . . .%.w.r.>.% O O q d a a u u z r.w.0.$.3 #.4 #.3 3.w.t.1./ ^ / = # . h.|.{.{.|.|.|.|.",
"|.|.|.|.|.|.|.|.{.|.|.{.|._.u.w.e.o.3  . . . .$.w.w.>.% O O q y u u u t z w.w.w.$.3 3 #.3 3 4.e.w.q.' / / = X   h.{.{.{.|.|.|.|.",
"|.|.|.|.|.|.|.|.|.|.|.|.|.`.r.w.e.%. . . . .3 o.w.e.<.% O O 0 a p a u t z w.w.0.#.3 3 #.4 3 4.w.9.-.W W W : : - n.|.{.|.|.|.|.|.",
"|.|.|.|.|.|.|.|.|.|.|.|.|.`.r.w.e.o. . . . . .%.e.w.8.% O O 0 u a a a t z w.w.w.$.3  . .3 3 4.2.y.;.O @ + H.|.{.|.|.{.|.|.|.|.|.",
"|.|.|.|.|.|.|.|.|.|.|.|.|.`.y.8.e.%.3  . . . .o.w.w.w.% @ O 0 u a a a t z w.w.w.%.3 #. .3 3 3.e.e.;.@ @ O I.|.{.{.{.|.|.|.|.|.|.",
"|.|.|.|.|.|.|.|.|.|.|.{.|.`.y.w.e.X.2  .2 3 2 X.e.w.>.+ O + 0 u u a a t z w.w.w.#.2 3 2 3 2 O.e.r.;.@ @ O I.|.|.{.|.{.|.|.|.|.|.",
"|.|.|.|.|.|.|.|.|.|.|.{.|.`.r.w.w.4.o.O.O.O.o.4.e.w.<.* & & q a u a a u z r.8.0.O.+.O.O.O.o.6.e.u.;.O O O I.|.{.|.|.|.|.|.|.|.|.",
"|.|.|.|.|.|.|.|.|.|.|.|.|.`.r.w.w.e.e.e.e.e.e.e.w.w.8.d i a t a u a a a z w.w.w.e.e.e.e.e.e.w.8.u.Z O O O I.|.{.|.|.|.|.|.|.|.|.",
"|.|.|.|.|.|.|.|.|.|.|.|.|.`.u.w.w.w.w.w.w.w.w.w.w.r.w.d a d a a a a a a z r.w.r.w.w.w.w.w.w.w.w.u.;.# # % I.|.{.|.|.|.|.|.|.|.|.",
"|.|.|.|.|.|.|.|.|.|.|.|.|.`.w.:.<.<.<.>.<.<.<.<.<.<.,.r 8 9 8 9 9 9 9 6 s <.<.>.<.<.<.>.<.<.<.<.2.Z . . . H.|.{.|.|.|.|.|.|.|.|.",
"|.|.|.|.|.|.|.|.|.|.|.}.|.[.G.G.G.G.G.G.G.G.G.G.G.G.F.x.z.x.z.z.z.z.z.z.c.F.F.G.G.G.G.G.G.G.G.G.G.n.f.f.d.^.{.|.|.|.|.|.|.|.|.|.",
"|.|.|.|.|.|.|.|.|.|.|.|.|.|.|.|.|.|.|.|.|.|.|.|.|.|.|.|.|.|.|.|.|.|.|.|.|.|.|.|.|.|.|.|.|.|.|.|.|.|.|.|.|.|.{.|.|.|.|.|.|.|.|.|.",
"|.|.|.|.|.|.|.|.|.|.|.|.|.}.|.[.{.{.{.{.{.{.{.{.{.{.{.{.{.{.{.{.{.{.{.{.{.{.|.{.{.{.{.{.{.{.{.{.|.{.{.{.{.{.|.{.|.|.|.|.|.|.|.|.",
"|.|.|.|.|.|.|.|.|.|.|.|.|.|.|.|.|.|.{.|.{.|.{.|.{.|.|.|.{.|.|.{.|.{.|.{.|.|.|.|.|.{.|.{.|.|.|.|.{.|.|.|.{.|.|.|.|.|.|.|.|.|.|.|."
};
