/* XPM */
static char *result[] = {
/* columns rows colors chars-per-pixel */
"64 64 249 2 ",
"   c #457D18",
".  c #547F36",
"X  c #5B7842",
"o  c #DA3904",
"O  c #DD3717",
"+  c #D02A00",
"@  c #E52400",
"#  c #E72C01",
"$  c #E43300",
"%  c #EC3501",
"&  c #E33C02",
"*  c #EC3B00",
"=  c #E53B0C",
"-  c #F53200",
";  c #F33B00",
":  c #FB3C02",
">  c #F93905",
",  c #FB3C13",
"<  c #F22A08",
"1  c #B0762D",
"2  c #DB4703",
"3  c #DE461F",
"4  c #ED4301",
"5  c #E74705",
"6  c #F34403",
"7  c #FE4302",
"8  c #F24C01",
"9  c #FD4D01",
"0  c #F44509",
"q  c #F84B0B",
"w  c #EF5200",
"e  c #ED5B00",
"r  c #E95B09",
"t  c #F45402",
"y  c #FC5402",
"u  c #F55B01",
"i  c #FD5C02",
"p  c #FE5B0A",
"a  c #F9540B",
"s  c #E84617",
"d  c #F64814",
"f  c #FF5B13",
"g  c #FB5515",
"h  c #EA5B1F",
"j  c #DA7800",
"k  c #DE6B1A",
"l  c #EC6201",
"z  c #E86705",
"x  c #F36301",
"c  c #FC6301",
"v  c #F56D00",
"b  c #FD6C02",
"n  c #FF630B",
"m  c #FE6A0B",
"M  c #F5650F",
"N  c #EC7201",
"B  c #E67803",
"V  c #F47401",
"C  c #FD7402",
"Z  c #F57900",
"A  c #FE7B03",
"S  c #FF740B",
"D  c #FD7C0B",
"F  c #F47909",
"G  c #ED651A",
"H  c #FE6213",
"J  c #F56916",
"K  c #FE7413",
"L  c #FE7B14",
"P  c #F87519",
"I  c #EB7013",
"U  c #DD5E3B",
"Y  c #F75A29",
"T  c #EF4D31",
"R  c #D56128",
"E  c #F66628",
"W  c #E76832",
"Q  c #E57435",
"!  c #FC7A3C",
"~  c #F36A2A",
"^  c #EF5B47",
"/  c #F67D58",
"(  c #F97152",
")  c #E47564",
"_  c #D77246",
"`  c #498928",
"'  c #528527",
"]  c #59963A",
"[  c #518C30",
"{  c #668A3A",
"}  c #6B9F3D",
"|  c #5DA036",
" . c #65A03A",
".. c #73B03B",
"X. c #579749",
"o. c #679842",
"O. c #759B56",
"+. c #45A145",
"@. c #64A242",
"#. c #77AE51",
"$. c #74BD64",
"%. c #939F39",
"&. c #EC8302",
"*. c #EB8B02",
"=. c #FE8303",
"-. c #FE8B02",
";. c #FE8509",
":. c #FB8C08",
">. c #FD9302",
",. c #FF940C",
"<. c #F39505",
"1. c #FC8B12",
"2. c #FC971C",
"3. c #EA8F09",
"4. c #F6A20F",
"5. c #D88E36",
"6. c #FA8334",
"7. c #F58623",
"8. c #84B446",
"9. c #85B95B",
"0. c #92B74F",
"q. c #A2BF51",
"w. c #B39966",
"e. c #85A765",
"r. c #95B777",
"t. c #99B271",
"y. c #A1B96B",
"u. c #FD8B4D",
"i. c #F58555",
"p. c #F6965A",
"a. c #EC9248",
"s. c #F9A958",
"d. c #FAAE54",
"f. c #F38D69",
"g. c #FC9869",
"h. c #F39477",
"j. c #EA936B",
"k. c #FAA667",
"l. c #FAA979",
"z. c #F8B474",
"x. c #EDB963",
"c. c #95C44C",
"v. c #94CC53",
"b. c #A8CD55",
"n. c #B3C75D",
"m. c #9AC56E",
"M. c #A5CC63",
"N. c #AAC96A",
"B. c #B2CE69",
"V. c #B6C66E",
"C. c #ABCB78",
"Z. c #B6CA78",
"A. c #ADDC77",
"S. c #B4D175",
"D. c #B1D765",
"F. c #B8E377",
"G. c #F2C87E",
"H. c #96BB86",
"J. c #A1BF81",
"K. c #E79D84",
"L. c #FBAC89",
"P. c #FDB795",
"I. c #F5AA8B",
"U. c #FDBBA8",
"Y. c #FFA9A1",
"T. c #9DCF86",
"R. c #B9D889",
"E. c #A8C694",
"W. c #B6CBAD",
"Q. c #A5C9A5",
"!. c #BAE5B0",
"~. c #C1D799",
"^. c #F3CB8E",
"/. c #C4E69C",
"(. c #C9D9B2",
"). c #FCCAB8",
"_. c #FFD4B1",
"`. c #F0CEAA",
"'. c #D3E3AD",
"]. c #C4E4B1",
"[. c #D7E3B8",
"{. c #DAF7B9",
"}. c #FDE5A7",
"|. c #CBDCCA",
" X c #DED8C8",
".X c #FCD8C6",
"XX c #FCDCD2",
"oX c #FFD7DA",
"OX c #E8D5D7",
"+X c #DBEBD8",
"@X c #D6EDCD",
"#X c #E2EACD",
"$X c #FDE3C9",
"%X c #F6FACF",
"&X c #E4E9D8",
"*X c #F9E6D6",
"=X c #EBFBD9",
"-X c #FEF2D5",
";X c #F5F5DD",
":X c #F9F8DC",
">X c #ECF8CA",
",X c #FFDBE4",
"<X c #DCFBF9",
"1X c #D9FBE2",
"2X c #ECECE5",
"3X c #EDEDEC",
"4X c #E5E7E4",
"5X c #F4EBE3",
"6X c #FDEDE6",
"7X c #FFE3EB",
"8X c #F3EDEC",
"9X c #FDECED",
"0X c #F7E4E8",
"qX c #EAF3E4",
"wX c #ECF3EC",
"eX c #E4FEEB",
"rX c #EDFBED",
"tX c #E7F6E8",
"yX c #F3F3E3",
"uX c #FDF3E5",
"iX c #F1FDE5",
"pX c #F3F3EE",
"aX c #FCF3EC",
"sX c #F3FAEC",
"dX c #FCFCED",
"fX c #FFFDE6",
"gX c #ECECF4",
"hX c #ECEDFB",
"jX c #E6EBF2",
"kX c #F3EDF4",
"lX c #FCECF4",
"zX c #F4EDFD",
"xX c #FCECFE",
"cX c #FCE4FC",
"vX c #E4F4F6",
"bX c #FFECF3F5",
"nX c #FFECFDF3",
"mX c #FFE6F4FD",
"MX c #FFECF5FC",
"NX c #FFE4FCFD",
"BX c #FFECFCFC",
"VX c #FFF5F5F5",
"CX c #FFFBF4F4",
"ZX c #FFF5FCF5",
"AX c #FFFBFAF4",
"SX c #FFF5F5FA",
"DX c #FFFCF4FC",
"FX c #FFF4FCFE",
"GX c #FFFCFBFD",
/* pixels */
"VXVXVXVXVXVXVXVXVXVXVXSXVXVXVXVXVXVXVXVXVXVXVXVXSXAXVXVXkXVXVXVXVXVXVXVXVXVXVXVXVXVXVXVXVXVXVXVXVXVXVXVXVXVXVXVXVXVXVXVXVXVXVXVX",
"VXVXVXVXVXVXVXVXVXVXAXVXVXVXVXVXVXSXVXVXVXVXVXVXVXVXVXVXVXVXVXVXVXVXVXVXVXVXVXVXVXVXVXVXVXVXVXVXVXVXVXVXVXVXVXVXVXVXVXVXVXVXVXVX",
"VXVXVXVXVXVXVXVXVXVXVXVXVXVXVXVXVXVXVXVXVXVXVXVXVXVXVXVXVXVXVXVXVXVXVXVXVXVXVXVXVXVXVXVXVXVXVXVXSXAXVXVXVXVXVXVXVXVXVXVXVXVXVXVX",
"VXVXVXVXVXVXVXVXVXVXGXVXVXVXVXVXVXVXVXVXVXVXAXVXVXVXVXVXVXVXVXwXVXVXVXVXVXVXVXVXVXVXVXVXVXVXVXVXVXVXVXVXVXVXVXVXVXVXVXVXVXVXVXVX",
"VXVXVXVXVXVXVXVXVXVXVXVXVXVXVXVXVXAXVXVXZXVXVXVXVXVXVXVXVXVXVXVXVXVXVXVXVXVXVXVXVXVXVXVXVXVXVXVXVXVXVXVXVXVXVXVXVXVXVXVXVXVXVX3X",
"VXVXVXVXVXVXVXVXVXVXVXVXVXVXVXVXVXVXVXVXSXVXVXVXVXVXVXVXVXwXVXVXVXVXVXVXVXVXVXVXVXVXVXVXVXVXVXVXVXVXVXVXVXVXVXSXVXVXVXVXVXVXVXVX",
"VXVXVXVXVXVXVXVXVXVXSXVXVXVXVXVXVXVXVXVXVXVXVXVXVXVXVXVXkXVXVXVXVXVXVXVXVXVXVXVXVXVXVXVXVXVXVXVXVXVXVXVXVXVXVXAXVXVXbX8XVXVXVXVX",
"VXVXVXVXVXVXVXVXVXVXZXVXVXVXVXVXVXVXVXVXVXVXVXVXSXVXVX3XwXVXkXVXZXVXVXVXVXVXVXVXVXVXVXVXVXVXVXVXVXVXVXVXVXVXVXVXVXVXVXVX3X3XVXVX",
"VXVXVXVXVXVXVXVXVXVXVXSXVXVXVXVXVXVXVXVXVXVXVXVXVXpX3XVXVXAXVXVXSXVXVXVXAXSXVXVXVXdXyXaXaXzXFX(.T.ZXDXDX|.|.ZXcXdXpXwXVXVXSXVXGX",
"AXVXVXVXVXVXVXVXVXVXVXAXVXVXVXVXVXSXVXVXVXVXVXVXVXVXgXVXVXVXVXVXVXVXVXVXVXVXVXVXVXDXzXSXdXAXwXt.[ W.GX&XO.#.+XGX3XVXgXgXSXGXVX3X",
"SXVXVXVXVXVXVXVXVXVXVXVXVXVXVXVXAXVXVXVXVXVXVXVXVXVXkXVXVXZXSXVXVXVXVXVXVXVXVXVXVXSXDXSXiXpXFX#X .o.[.nXE.[ e.+XGXVXVXAXVXVXGXVX",
"VXVXVXVXVXVXVXVXVXVXVXVXVXVXVXVXVXVXVXVXVXVXVXVXVXVXVXVXSXAXVXVXVXVXVXVXVXVXVXVXZXyXpXkXGXFX&X~.0.J.NX=XR.8.J.BXgXgXSXVXVX2XVXVX",
"VXVXVXVXSXVXVXVXVXVXVXVXVXVXVXVXVXVXVXVXVXVXVXVXVXVXVXVXVXVXVXVXVXVXVXVXVXVXVXVXsXpXGXzXGX&XS.0.[.GXrXN.q.'.SXGXZXGXGX4XGXVX2XAX",
"VXVXVXVXAXVXVXVXVXVXVXVXVXVXVXVXVXVXVXVXSXVXVXVXVXVXVXVXVXVXAXVXVXVXSXVXVXVXVXVXsXzXGXsX#XC.S.{.DX'.b.S.#XDXDX2X=XW.qXAXGXSXAXVX",
"VXVXVXVXVXVXVXVXVXVXVXVXVXVXVXVXVXVXVXVXVXVXVXVXVXAXSXVXVXVXVXVXVXVXVXAXVXVXVXVXAXhX5XfX>XN.N.+X@XB.c.E.MXdX:XfXr.. |.GXzXSXDX2X",
"VXVXVXVXVXVXVXVXVXVXVXVXVXSXVXAXVXVXVXVXVXVXVXVXVXVXVXVXVXVXVXVXVXVXVXVXVXVXVXVXSXGXVXSXSX~.b.N.B.A.#.  ].FX4X~.m.r.iXwXzXGXVXAX",
"VXVXVXVXVXVXVXVXVXVXVXbXVXVXVXZXVXVXVXVXVXVXVXVX9XFXvXCXCX3XBX9XsX8XDXFXg.7.oX! :Xj.).+Xt.B.V.b.y.M.b.E.xX*XN.b.v.O.+XGXkXGX8XSX",
"VXVXVXVXVXVXVXVXVXVXVXVXVXVXVXVXVXVXVXVXVXVXVXVXGXeXeX2XMXZXaX<X`./ `.k.c G C t I d Y %.+.9.F.N.]  .].FX#XR.T.9.. $.+XGXgXAXVXFX",
"VXVXVXVXVXVXVXVXVXVXVXVXVXVXVXVXSXVXVXVXVXVXVXVXkXMXlXGXFXjXdX).y t D x S E b P C L C j { ] 9.X. .8./.{.M.v.9.' t.@XZXDXCXVXSXSX",
"VXVXZXSXVXVXVXVXVXVXVXVXVXVXVX8XVXVXVXVXVXVXVXVXuXlXGXgXGXsXL.a i P c C -.b &.A Z &.&.i k o.X.| q.S.n.n.D...' H.4XGXVXVXCXpXSXSX",
"VXVXVXVXVXVXVXVXVXAXVXVXVXVXVXpXVXVXVXVXVXVXVXVXZXiXnXMXdXl.y x b K s.<.,.2.*.c J b S N y R { c.A.e.y.N. .o.H.FXSXSXAXVXVXVXVXSX",
"VXVXVXVXVXVXVXVXSXVXVXVXVX8XbXkXVXVXVXVXVXVXSXAXvX<X9X-Xk.a i m F k.XXx._.G.1.P A =.C &.c f 5.D.$.` o. .` Q.FXsXDXkXGXVX8XVXVXVX",
"VXVXVXVXVXSXVXVXVXVXVXVXgXpXVXVXVXVXVXVXVXVXVXVXZXcXFXP.2 H f M ^.-X_.*XuXd.A Z *.,.Z b N e a 1 [ 9.] X.!.FXzX-XSX3X3XVXVXGXVXAX",
"VXVXVXVXVXAXVXVXVXVXpXgXpXVXSXZXVXVXVXVXVXVXVXVX0XFXvX$Xu.7 i G.sXL.4.}.a.-.-.,.<.c 9 z L c y O w.CX|.W.GXzXDXDXVXAXVXGXGXgX3XAX",
"VXVXVXVXVXVXVXVXVXVXVXSXVXVXVXVXnXpXCXAXnXwXVXSX;XFXbXz.i H _.sXd.1.&.>.:.A =.:.c l v b S d O i.GXVXAXVXVXVXVXVXVXVXVXVXVXVXVXVX",
"VXVXVXVXVXVXVXVXVXVXVXVXVXVXVXVXDXDXkXMXVXaXaXCXAXMXI.9 6.#X.Xd.3.<.>.:.C x c c 8 c D N i y - q 2X8XkXVXVXSXZXSXVXVXVXVXVXVXVXVX",
"VXVXVXVXVXVXVXVXVXVXVXVXVXVXVXAXtXrXBXVXDXxXhXbXuXf.q 8 g.$Xz.-.3.>.:.C u p i u b D m i l a - W 2XVXVXVXVXVXSXVXVXVXVXVXVXVXVXVX",
"VXVXSXAXVXVXVXVXVXVXAXVXVXVXVXVXyXsXAXCXSXFXFX=X/ u C m P 2.*.D ,.A b i y p n b Z v i f 5 o 2 g.pXVXDXVXVXVXVXVXVXVXVXSXVXVXVXVX",
"VXVXVXVXVXVXVXVXVXVXVXVXVXVXVXVXDXzXDXsXvXVX).! y N v c -.>.V i b b i i i u v C C b u 5 o y n h 8XpXVXkXVXVXVXVXVXVXVXVXVXVXVXVX",
"VXVXVXVXVXVXVXVXVXVXVXVXVXSXVXVXSXmXFXAXeXVXP.6 z m =.>.<.Z i c w c i i c m C Z C F t : g 4 E _.VXVXVXVX8XVXSXSXVXVXVXVXVXVXVXVX",
"VXVXVXVXVXAXSXVXVXVXVXVXVXVXVXVXuXVXaX*XbXBX`.7.P C >.<.v H J 8 c m x u C A A C m e i = @ Y _.BXAXVXVXVXVXVXVXVXVXVXVXVXSXAXVXVX",
"VXVXVXVXVXVXVXVXVXVXVXVXVXVXVXVXVXFXvXyXGXcXh.y b V ;.:.C i 9 c b S F v A C v C p e u % ; o f.mX8XVXCXVXVXVXSXSXVXVXVXVXVXVXVXVX",
"VXVXVXSXVXVXVXVXVXVXVXVXVXbXVXAXxXNX<XeX-X! 9 v V V -.1.S x x b b C l c C B F i y i 9 4 $ s Y.MXVXVXVXVXVXVXVXVXAXSXVXVXVXVXVXVX",
"VXVXVXAXVXVXVXVXVXVXVXSXSXSXSXVXaXyXBXoXa 9 ! b b C A C x c b C F V C x C S 8 x e t p ; 3 ).nXCXVXVXZXVXVXVXVXVXVXVXVXVXVXVXVXVX",
"VXVXVXVXVXVXVXVXSXVXVXSXAXSXVXVXdXwXGX7XQ b m P i c b x u m S C N D V D m 9 n i f i % 3 *XBXbXwXVXVXSXVXVXVXVXVXVXVXVXVXVXVXVXVX",
"VXVXVXVXVXVXVXVXVXSXVXVXVXVXVXVXSXiXNXMXd.N K y p y u c b S D Z v c n u u p 8 q q @ U 6XbX8XGXSXVXVXVXVXVXVXVXVXVXVXVXVXVXVXVXVX",
"VXVXVXVXVXVXVXVXSXSXAXVXVXpXVXVXkXnX-Xa.S C x c i u c C S S C N c w 7 y e & s K.d ) 6XBXAX9XDXGXVXVXVXVXVXVXVXVXVXVXVXVXbXVXVXVX",
"VXVXVXVXVXVXVXVXbXZXSXVXVXVXCXAXGX5X( : b V i M i b S b x c m l g 0 4 t * 3 U.FXU.:XnXSXbXFX8XtXVXVXVXVXVXVXVXVXVXVXVXVX8XVXVXVX",
"VXVXVXVXVXVXSXVXbXVXVXVXAXCXAX8XXX~ 9 m N D f t b b C c 8 w a t d % 5 + T .XFXhXNXAX;XFXDX4XFXVXVXVXVXVXVXVXVXSXVXVX3XVXVXVXVXVX",
"VXVXVXVXVXVXVXVXZXVXkXVXVXCX8X4Xg i V F C m n b K v l x 8 * ; 0 $ a # ^ ,XFXhXiXMXjXxXCXqXFXDXCXVXVXVXVXVXVXVXAXVXVXVXVX3X8XbXVX",
"VXVXVXVXVXAXVXSXAX3XGXkXjXNX^.u t L C v C b C Z N p t 5 4 ; o , ~ 0 i.#XZX9XaXMXVXVXVXVXVXVXVXVXVXVXVXVXVXVXVXSXVX3XgXVXVXVXVXVX",
"SXAXVXVXSXVXVXVXSXFXwXVXGXL.9 g S v V ;.b b K C i y 0 & o , ,  X$XU..XFXFXCXpXbXVXVXZXVXVXVXVXVXVXVXVXVXVXVXVXAXVXVX8XpXVXVXVXVX",
"VXVXVXVXVXVXVXVXSXlXvXZXk.: H B D V V C c u u u y $ s 8 % d OXnX<XVXDXMXzXlXVXSXVXVXSXVXVXVXVXVXVXVXVXVXVXVXVXVXVXVXbXVXSXZXVXVX",
"VXVXVXVXAXVXVXVXAX<XAXg.4 c A B V A C e u 9 * 8 4 s $ $ Y 0XSXDXnXsXAXkXlXVXVXZXVXVXVXVXVXVXVXVXVXVXVXVXVXVXVXVXVXVXVXVXVXAXVXVX",
"VXVXVXVXVXVXVXVXMX*Xi.q H V Z b C b b t 4 0 ; ; s ; 5 ^ kXGXlXCX9XAXdXuXaXZXkXVXVXVXVXVXVXVXVXVXVXZXSXVXVXVXVXVXVXVXSXVXVXVXVXSX",
"VXVXVXVXVXVXVXVXFXP.G e A F N A b c y 6 4 = $ * - O Q FXDX5XZXnXzXbXmXpXnXBXkXAXVXVXVXVXVXVXVXVXVXVXVXVXVXVXVXVXVXVXVXAXAXSXVXVX",
"VXVXVXVXVXVXgXVXAXfX5.c D I L c i y 6 * = s s r = f.BXaXVXSXAXbXGXmXSXSXnXSXlXrXVXVXVXVXVXVXVXVXVXVXVXVXVXVXVXVXAXSXVXVXVXVXVXVX",
"VXVXVXVXVXVXpXVXBXh.p c A V l u p & ; s o ~ u.E l.fXMXSXGXtXMXxX;XbXDXaXwXxXxXeXVXVXVXVXAXSXVXVXVXVXVXVXVXVXVXVXVXVXVXVXVXVXVXVX",
"bXCX;X=XmXBX9XDXu.0 c b =.z i q % 4 5 o ^ 7XFXOXZXVXVXVXZXSXVXVXVXVXVXVXVXVXVXVXVXVXVXVXVXVXVXVXVXVXVXVXVXVXVXVXVXVXVXVXVXVXVXVX",
"FXmXFXGX8XFX:XQ 9 l e D i y r 6 4 4 @ ( dXbX0XVXVXVXVXVXVXVXVXVXVXVXVXVXVXVXVXVXVXVXVXVXVXVXVXVXVXVXVXVXVXVXVXVXVXVXVXVXAXSXVXVX",
"uXxXgXNXCX7XFXd.y i z w p M $ ; 4 - / yXBXVXVXAXVXVXVXVXVXVXVXVXVXVXVXVXVXVXVXVXbXVXVXVXVXVXVXVXVXVXVXVXVXVXVXVXVXVXVXVXVXVXVXVX",
"dXSXlXZXCXFXFXh.t p w e 9 @ W W g h.AXNXbXzXMXrXVXVXVXVXVXVXVXVXVXVXVXVXVXVXVXVXVXVXVXVXVXVXVXVXVXVXVXVXVXSXAXVXVXVXVXVXVXVXVXVX",
"mXFXMXsXAX*Xp.Y z : ; 6 - ( .X.XI.dXmXDXrXFXlXwXVXVXVXVXVXVXVXVXVXVXVXAXVXVXVXVXVXVXVXVXVXVX8X8XVXVXVXVXVXVXVXVXVXVXVXVXVXVXVXVX",
"3XDXvX1XGX).8 9 * O ~ @ _ &XhXSXBXqXZXSXCX;XZXcXVXVXVXVXVXAXVXVXVXVXVXSXVXVXVXVXVXVXVXVXVXbXbXVXVXVXVXVXVXVXVXVXVXVXVXVXVXVXVXVX",
"fX9XCXaXpXsXl.% T `..XK.:XSXzXNXMXwXZXMX3XCX2XFXVXVXVXVXVXVXVXVXVXVXVXVXVXVXVXVXVXVXVXVXVX8XVXVXVXSXVXVXVXVXVXVXVXVXVXVXAXVXVXVX",
"vXMXDXbXaXDXmXj.`.GX<XkXlXzXlX%X9XDXCXVXZXMXGXyXVXVXVXVXVXVXVXVXVXVXVXVXVXVXVXVXVXVXVXpXbXVXVXAXVXAXVXVXVXVXVXVXVXVXVXVXSXVXVXVX",
"VXSXVXVXVXVXVXVXkXVXVXVXwXVXVXVXVXVXVXVXVXVXVXVXVXVXVXVXVXVXVXVXVXVXVXVXVXAXSXVXVXVXSXVXVXVXVXVXVXVXVXVXVXVXVXVXVXVXVXVXVXVXVXVX",
"VXVXVXVXVXVXVXVXSXVXVXkXVXVXVXVXVXVXVXVXVXVXVXVXSXVXVXVXVXVXVXVXVXVXVXVXVXVXVXVXVXVXVXVXVXVXVXVXVXVXVXVXVXVXVXVXVXVXVXSXVXVXVXAX",
"VXVXVXVXVXVXVXVXVXVXVXVXVXVXVXVXVXVXVXVXVXVXVXVXVXVXVXVXVXVXVXVXVXVXVXVXVXVXVXVXVXVXVXVXVXVXVXVXVXVXVXVXVXVXVXVXVXVXVXVXVXVXVXVX",
"VXVXVXVXVXAXVXVXVXVXVXVXVXVXVXVXVXVXVXVXbXVXVXVXVXVXVXVXVXAXVXVXVXVXVXVXVXVXVXVXVXVXVXVXVXVXVXVXVXVXVXVXVXVXVXVXVXVXVXVXVXVXVXVX",
"VXVXVXVXVXVXSXVXVXVXVXVXVXVXVXVXVXVXVXVXVXVXAXVXVXVXVXVXVXVXVXVXVXVXAXVXVXVXVXVXVXVXVXVXVXVXVXVXVXVXVXVXVXVXVXVXVXVXVXVXVXVXVXVX",
"VXVXVXVXVXVXVXVXVXVXVXVXVXVXVXVXVXVXVXVXVXSXVXVXVXVXVXVXVXVXSXVXVXVXVXVXVXVXVXVXVXVXVXVXVXVXVXVXVXVXVXVXVXVXVXVXVXVXVXVXVXVXVXVX",
"VXAXVXVXVXVXVXVXVXVXAXSXVXVXVXVXVXVXVXVXVXVXVXVXVXVXVXVXVXVXVXVXVXVXVXVXVXVXVXVXVXVXVXVXVXVXVXVXVXVXVXVXVXVXVXVXVXAXVXVXVXVXVXSX",
"VXVXVXVXVXVXVXVXVXVXVXVXVXVXVXVXVXVXVXVXVXVXVXVXVXVXVXVXVXVXVXVXVXVXVXSXVXVXVXVXVXVXVXVXVXVXVXVXVXVXVXVXVXVXVXVXVXVXVXVXVXVXVXVX"
};
