/* XPM */
static char *result[] = {
/* columns rows colors chars-per-pixel */
"64 64 200 2 ",
"   c #020202",
".  c #0A0606",
"X  c #0A0A02",
"o  c #02030A",
"O  c #060A0B",
"+  c #0B0C0B",
"@  c #0F0F0E",
"#  c #181508",
"$  c #090D12",
"%  c #0B0F15",
"&  c #120F11",
"*  c #0C1214",
"=  c #0E181B",
"-  c #131414",
";  c #141916",
":  c #17181B",
">  c #1B1B1C",
",  c #201C0B",
"<  c #291D0E",
"1  c #17211C",
"2  c #1C221E",
"3  c #2B2512",
"4  c #392E11",
"5  c #1F1E22",
"6  c #1F2422",
"7  c #1D2A28",
"8  c #232323",
"9  c #222B26",
"0  c #272628",
"q  c #232C2A",
"w  c #2B2B2C",
"e  c #25322B",
"r  c #28332B",
"t  c #2E392F",
"y  c #322E30",
"u  c #273633",
"i  c #2D3C34",
"p  c #333234",
"a  c #313E34",
"s  c #373739",
"d  c #493D16",
"f  c #2F4439",
"g  c #324339",
"h  c #37473B",
"j  c #56471C",
"k  c #614F1B",
"l  c #544A24",
"z  c #564D24",
"x  c #6C5A25",
"c  c #695E2D",
"v  c #715F28",
"b  c #78692A",
"n  c #796B31",
"m  c #413F40",
"M  c #3D4D41",
"N  c #3E5345",
"B  c #3F564B",
"V  c #434245",
"C  c #47494F",
"Z  c #4C4A4B",
"A  c #445748",
"S  c #445B4D",
"D  c #534F51",
"F  c #4B5550",
"G  c #565456",
"H  c #5B5A5B",
"J  c #4D6454",
"K  c #4C6759",
"L  c #536B54",
"P  c #526C5C",
"I  c #55715D",
"U  c #5B755F",
"Y  c #615E61",
"T  c #5A7665",
"R  c #5C7862",
"E  c #597965",
"W  c #646363",
"Q  c #6D6B6D",
"!  c #627B66",
"~  c #737373",
"^  c #86752D",
"/  c #8A7634",
"(  c #857638",
")  c #D26272",
"_  c #CD727B",
"`  c #CA7A7E",
"'  c #5D836C",
"]  c #63816B",
"[  c #68876C",
"{  c #6B8D73",
"}  c #698D76",
"|  c #6F9379",
" . c #729276",
".. c #73947A",
"X. c #74997B",
"o. c #968635",
"O. c #A48D36",
"+. c #AE9839",
"@. c #B59B3A",
"#. c #A89640",
"$. c #BDA445",
"%. c #C7AB45",
"&. c #CAB447",
"*. c #D6B949",
"=. c #E2BD48",
"-. c #DEC14E",
";. c #E5C34B",
":. c #ECC549",
">. c #EDCA4B",
",. c #F6CC4D",
"<. c #EAD24A",
"1. c #F9D44C",
"2. c #E5C956",
"3. c #EACB52",
"4. c #F2D255",
"5. c #F3D65A",
"6. c #FFE44D",
"7. c #FEE84F",
"8. c #FFF455",
"9. c #817F80",
"0. c #C87E80",
"q. c #769B82",
"w. c #769A83",
"e. c #76A285",
"r. c #7DA285",
"t. c #7DA58A",
"y. c #848384",
"u. c #89878A",
"i. c #908E8F",
"p. c #949493",
"a. c #979699",
"s. c #9B9A9A",
"d. c #BD8C86",
"f. c #B8978A",
"g. c #A19F9E",
"h. c #B39F90",
"j. c #82A58A",
"k. c #83AC8D",
"l. c #88B38E",
"z. c #86AE92",
"x. c #8BB493",
"c. c #88B296",
"v. c #8CBA94",
"b. c #8EBB9A",
"n. c #92BC97",
"m. c #93BE9A",
"M. c #A9A996",
"N. c #B1A994",
"B. c #A5BA9C",
"V. c #A19FA1",
"C. c #A5A3A3",
"Z. c #AAA5A5",
"A. c #ACABAB",
"S. c #B1ADAE",
"D. c #B0B0AC",
"F. c #B4B3B3",
"G. c #BBBAB9",
"H. c #C18C86",
"J. c #95C29D",
"K. c #98C59E",
"L. c #96C99E",
"P. c #9AC99E",
"I. c #A2C29E",
"U. c #96C4A1",
"Y. c #99C6A1",
"T. c #97CAA2",
"R. c #9BCBA3",
"E. c #9DCEA8",
"W. c #9CD1A5",
"Q. c #9ED2A9",
"!. c #99D5A9",
"~. c #A2C2A2",
"^. c #A0CDA5",
"/. c #A1CFA9",
"(. c #A1D2A6",
"). c #A2D4AB",
"_. c #A4DAAD",
"`. c #AADBAF",
"'. c #A5D6B0",
"]. c #A5DAB2",
"[. c #A9DCB3",
"{. c #ACDFB9",
"}. c #A8E0B2",
"|. c #AFE2BA",
" X c #B4E8BD",
".X c #C4C4C3",
"XX c #CAC8C6",
"oX c #CCCBCB",
"OX c #D5D5D4",
"+X c #DCDCDC",
"@X c #FFE0E0DD",
"#X c #FFE5E4E4",
"$X c #FFE9E9E7",
"%X c #FFECECEB",
"&X c #FFF0F0EE",
"*X c #FFF3F3F3",
"=X c #FFF8F8F7",
"-X c #FFBFBFB",
";X c #FFFFFFFFF",
":X c #FFFFFFFFF",
/* pixels */
":X:X:X:X:X:X:X:X:X:X:X:X:X:X:X:X:X:X:X:X:X:X:X:X:X:X:X;X:X-X:X:X:X:X:X:X:X:X:X:X:X:X:X:X:X:X:X:X:X:X:X:X:X:X:X:X:X:X:X:X:X:X:X:X",
":X:X:X:X:X:X:X:X:X:X:X:X:X:X:X:X:X:X:X:X:X:X:X:X:X:X:X-X:X:X:X;X-X:X:X:X:X:X:X:X:X:X:X:X:X:X:X:X:X:X:X:X:X:X:X:X:X:X:X:X:X:X:X:X",
":X:X:X:X:X:X:X:X:X:X:X:X:X:X:X:X:X:X:X:X:X:X:X;X:X:X-X:X#XXX@X;X:X-X:X:X:X:X:X:X:X:X:X:X:X:X:X:X:X:X:X:X:X:X:X:X:X:X:X:X:X:X:X:X",
":X:X:X:X:X:X:X:X:X:X:X:X:X:X:X:X:X:X:X:X:X:X:X:X:X:X%XH o   o i .X:X-X:X;X:X:X:X:X:X:X:X:X:X:X:X:X:X:X:X:X:X:X:X:X:X:X:X:X:X:X:X",
":X:X:X:X:X:X:X:X:X:X:X:X:X:X:X:X:X:X:X:X:X:X:X:X:X$Xp X b o.^ , o XX:X-X:X:X:X:X:X:X:X:X:X:X:X:X:X:X:X:X:X:X:X:X:X:X:X:X:X:X:X:X",
":X:X:X:X:X:X:X:X:X:X:X:X:X:X:X:X:X:X:X:X:X:X-X-X:XQ   &.7.7.7.<., V :X:X:X:X:X:X:X:X:X:X:X:X:X:X:X:X:X:X:X:X:X:X:X:X:X:X:X:X:X:X",
":X:X:X:X:X:X:X:X:X:X:X:X:X:X:X:X:X:X:X:X:X-X-X:X%X= b 6.<.b @.8.o.* $X:X;X:X;X:X:X:X:X:X:X:X:X:X:X:X:X:X:X:X:X:X:X:X:X:X:X:X:X:X",
":X:X:X:X:X:X:X:X:X:X:X:X:X:X:X:X:X-X-X-X:X:X:X:XOXo $.7.&.  @.8.O.6 -X:X:X;X-X;X:X;X:X:X:X:X:X:X:X:X:X:X:X:X:X:X:X:X:X:X:X:X:X:X",
":X:X:X:X:X:X:X:X:X:X:X:X:X:X:X-X:X:X:X:X#XF.y.W s   d k 4   k / d 5 F.@X-X:X:X:X;X;X:X:X:X:X:X:X:X:X:X:X:X:X:X:X:X:X:X:X:X:X:X:X",
":X:X:X:X:X:X:X:X:X:X:X-X:X-X-X:X:X#Xp.m .       * e u u i a 7 = $ .     8 Y A.$X:X:X-X-X:X:X:X:X:X:X:X:X:X:X:X:X:X:X:X:X:X:X:X:X",
":X:X:X:X:X:X:X:X:X:X:X:X-X:X:XOXW +   ; B { k.J.Q.).[.[.].'.'.E.J.k.} J 9 o o & W XX:X:X-X;X:X:X:X:X;X-X-X:X:X:X:X:X:X:X:X:X:X:X",
":X:X:X:X:X:X:X:X:X:X:X-X:X#XW     N r.W.[.`._.).(.(.(.^./.Q.(.Q.).].].].'.b.! e     D oX:X:X-X:X:X;X:X;X:X:X-X:X:X:X:X:X:X:X:X:X",
":X:X:X:X:X:X:X:X:X:X;X:XC.-   J J._._.(.^.^.R.(.W.(.^.Q.^.(.^.(./.E./.^.E.'.[.'.k.B .   W $X:X;X:X;X+XG.oX*X:X-X:X:X:X:X:X:X:X:X",
":X:X:X:X:X:X;X:X;X;X:XQ   e c.[._.W.W.W.(.(.W.(.^.W.(.E.^.^.^.^./.E./.^.E.E.Y.E.).].x.A   - s.:XOXV       : p.:X;X;X:X:X:X:X:X:X",
":X:X:X:X:X:X:X;X:X-XH   P _._.T.I.(.(.W.R.(.(.R.(.^.R.^.^.^.E.(.^.^./.^.R.^.E.^.R.R.)._.t.9   Z > . x o.^ 3   y.:X-X:X:X:X:X:X:X",
":X:X:X:X:X:X:X;X:XH   [ [.W.W.W.W.W.E.W.W.R.(.^.P.W.P.^.^.P.^.E.R.^.^.^.^.E.R.^.E.E.^.~.)./.J   + &.6.6.6.<.z o +X:X;X;X:X:X:X:X",
":X:X:X:X;X:X-X:X~   } _.W.W.W.W.W.T.W.W.P.W.^.P.P.W.R.I.W.^.I.R.Y.^.R.^.^.R.R.^.^.R.^.^.R.^.'...+ j -.+.@.1.;.X s.:X-X:X:X:X:X:X",
":X:X:X:X:X-X:XA.  E ].T.W.W.W.W.W.W.T.W.T.R.R.P.R.R.^.P.P.P.R.R.R.Y.R.R.R.R.R.R.R.Y.Y.^.R.R.Y.'.t.* # o b 1.<., a.:X-X:X:X:X:X:X",
":X:X:X:X:X:X%X: f !.T.W.W.W.W.W.W.W.T.P.W.P.R.P.P.P.P.R.R.P.R.R.R.Y.R.Y.Y.Y.R.Y.Y.~.^.Y.Y.R.R.U.).x.; 3 ;.1.&.. oX:X-X;X:X:X:X:X",
":X:X:X;X-X:X~   b.W.W.W.R.R.W.T.L.T.W.P.L.P.I.R.^.P.P.P.R.P.R.R.R.R.Y.R.Y.R.Y.R.Y.R.Y.Y.Y.R.^.R.K.).k.$ j >.d C :X:X:X:X:X:X:X:X",
":X:X:X:X:X$X+ P ].T.W.W.W.W.W.W.T.T.T.W.(.W.L.L.T.P.P.P.T.P.P.Y.Y.R.T.Y.Y.~.Y.R.Y.Y.R.Y.Y.Y.Y.R.R.K.'.X.+ , M $X:X-X:X;X:X:X:X:X",
":X:X:X-X:X~ O K.R.!.W.T.W.W.L.W.W.L.W.l.[ l.P.L.L.Y.Y.R.R.Y.L.R.Y.Y.Y.R.Y.Y.Y.Y.Y.Y.U.~.Y.Y.Y.Y.R.R.Y.).R   a.:X-X:X:X:X:X:X:X:X",
":X:X:X:X-X8 S ].L.T.L.W.L.T.P.W.P.(.{ X   * X.Q.L.P.P.R.P.P.L.T.Y.Y.Y.Y.Y.P.Y.Y.Y.Y.U.U.P.Y.Y.U.Y.Y.R.P.(.a + +X:X;X:X:X:X:X:X:X",
":X:X-X:X.Xo t.!.T.W.W.!.W.T.W.P.T.P.2 f J.3 f Q.J.K.P.K.P.P.Y.P.T.T.Y.Y.Y.Y.K.Y.K.K.K.K.Y.Y.Y.K.K.Y.Y.Y.E.c.  G :X:X;X:X:X:X:X:X",
":X:X-X:Xy.= R.T.T.E.R.W.W.(.P.L.P.T.; L  Xh 6 W.L.L.L.(.P.P.T.P.T.R.Y.Y.Y.P.Y.Y.K.K.K.Y.Y.K.K.U.Y.Y.Y.Y.U.'.P o G.:X-X:X:X:X:X:X",
":X-X-X:XC f ].T.!.R.R.!.I S _.W.L.(.A 1 | . I Q.L.W.L.U v.W.P.T.R.P.R.Y.Y.Y.L.T.K.K.K.m.Y.m.K.J.J.K.Y.Y.U.R.b.O Z :X;X:X:X:X:X:X",
":X:X:X:Xq I ].T.R.!.W._.[   N x.J.T.X..   9 v.J.v. .2 @ x.R.R.T.R.R.Y.R.Y.Y.K.Y.K.Y.Y.m.Y.U.K.K.K.K.Y.U.U.U.Q.K   +X:X:X:X:X:X:X",
":X:X:X*X5 } ].T.T.T.W.T._.{ -   ; ; . 2 t + + ; X   r l.R.P.R.Y.R.Y.Y.P.Y.Y.Y.J.K.K.K.Y.m.I.K.U.K.Y.K.U.U.U.T.z.  p.:X-X;X:X:X:X",
":X-X:X%X> e.].T.!.E.T.!.T.].J.{ J L [ v.W.r.R L R t.(.W.R.P.R.R.T.Y.Y.R.P.T.Y.L.U.U.m.Y.m.Y.U.U.J.J.K.J.U.U.U.T.e V :X:X:X:X:X:X",
":X:X:X#X: e.!.T.!.T.T.T.R.T.R.!._._.!.P.L.W.W._._.W.P.T.R.R.P.P.R.R.T.Y.Y.Y.Y.J.U.U.Y.m.Y.m.U.m.J.K.K.J.U.U.J.E.P + $X:X-X:X:X:X",
":X-X:X$X: e.Q.T.E.E.!.E.T.T.T.T.k.t.T.L.L.T.T.X.X.T.T.P.R.P.^.R.R.R.R.R.Y.Y.Y.J.U.U.K.Y.m.Y.m.U.K.K.J.J.U.J.m.!.z.  s.:X-X:X:X;X",
":X:X:X*X2 X.].T.E.T.!.E.!.R.E.J.; X k.W.J.T.l.. @ v.W.P.R.P.R.^.R.R.R.R.Y.Y.P.Y.m.J.K.m.Y.m.K.m.m.m.U.J.U.J.Y...e o   Z #X:X;X:X",
":X:X:X:Xu ' ].E.W.E.~.~.M.W.W.L.t 9 v.T.L.L.v.g g J.T.Y.Q.U.~.S.R.R.R.R.K.K.K.J.J.J.J.J.J.n.J.n.J.J.J.J.m.Y.j.+ 4 ^ z o m :X:X:X",
":X:X;X:XD B ].T.^._ H._ H.f.I.W.J.J.T.T.W.L.P.T.R.R.W.d.d.d.` h.B.R.R.T.R.Y.T.J.J.J.J.J.J.J.J.n.J.n.J.n.m.^.K # =.:.,.(   XX:X;X",
":X:X-X:Xu.7 !.!.h.` ` _ _ _ R.P._.L.T.K.t.W.L.P.P.T.M.) 0.) $.0.B.P.P.P.Y.P.Y.K.J.J.J.J.J.J.J.J.m.J.n.K.m.^.T # %.:.=.*.. p.:X-X",
":X;X:X:XoX: b.!.R.^.N.I.N.I.W.P. .t.W.h   X.P.l.l.W.m.~.h.M.h.N.W.P.I.W.P.K.K.J.J.J.J.n.n.n.n.n.m.n.I.n.m.Y.K   & O.,.=.# 9.:X-X",
":X:X:X-X:Xs E |.E.(.Q.(.!.W.R.R.t   @ - r   2 . A W.P.P.W.W.W.P.I.P.I.P.P.P.K.J.J.J.J.J.J.n.n.J.K.n.n.I.J.l.% x b +.>.-.X C.:X-X",
":X:X:X-X:Xa.e ].(.Q.(.Q.W.W.W.W.L.] L l.L.[ S ! v.P.P.P.P.P.P.P.P.P.L.P.K.J.K.J.J.J.n.J.J.n.J.n.m.n.J.n.I.X.. @.,.=.,.o.o @X:X:X",
":X:X:X;X-X=X0 } {.E.Q.Q.W.W.R.W.P._.!.W.L.!.Q.!.W.W.P.P.P.P.P.R.P.P.P.P.P.J.J.J.J.n.J.n.n.n.J.n.n.m.m.n.K.l.$ x ;.;.$.# u.:X-X:X",
":X:X:X:X-X-XC.8 E.).Q.Q.Q.W.W.R.P.L.L.L.L.L.L.L.L.P.P.P.P.P.P.P.P.P.P.P.L.L.J.J.J.J.J.n.n.J.v.J.m.n.n.K.n.K.I   < 4 + u.:X-X:X:X",
":X:X:X:X;X;X:XD N |.R.).(.E.E.W.W.W.T.T.T.L.T.L.P.R.P.P.P.P.P.P.P.L.P.P.L.J.L.J.J.J.l.J.v.v.J.J.n.n.m.m.m.b.b.w.F q - %X:X:X:X-X",
":X:X:X:X:X;X:X&X0 T |.E.).).(.W.W.W.W.P.T.W.T.T.R.R.T.W.T.W.T.W.P.P.P.L.L.J.J.J.J.J.J.J.J.v.v.v.n.m.m.b.m.m.m.U.].! > *X:X:X:X:X",
":X:X:X:X:X:X:X:X+X8 E |.E.E.Q.E.W.R.E.T.W.T.W.T.T.P.Y.P.P.W.T.P.L.W.W.L.T.J.J.J.J.J.J.l.v.J.J.v.b.m.m.U.U.b.U.c.E.S w :X:X-X:X:X",
":X:X:X:X:X:X:X-X:X@Xw A '.[.E.E.W.E.W.E.T.T.W.T.Y.E.R.R.T.P.P.R.L.P.P.L.T.L.L.J.l.J.J.J.J.J.v.J.m.m.m.m.m.U.m.b.E.f Z :X:X:X:X:X",
":X:X:X:X:X:X;X:X-X:X*XG 9 t.{._.E.E.E.E.R.R.R.T.R.R.R.^.P.(.^.^.R.R.R.R.Y.K.K.J.L.J.J.v.J.J.v.J.m.m.U.m.m.U.m.U.R.1 9.:X-X:X:X:X",
":X:X:X:X:X:X:X:X:X-X;X:XV.0 M k.[.].(.R.!.E.!.R.^.R.R.R.^. .x.^.R.R.R.Y.R.P.K.K.J.J.J.J.v.J.J.v.K.m.m.U.U.m.m.U.c.+ G.:X-X:X:X:X",
":X:X:X:X:X:X:X:X:X:X:X-X:X%X9.w i ] m.).E.E.R.E.E.R.Y.)...  w.).R.E.R.R.R.Y.R.K.J.J.J.J.J.J.J.J.m.U.U.U.U.U.U.E.! 5 *X:X-X:X:X:X",
":X:X:X:X:X:X:X:X:X:X:X:X;X:X:X%Xs.Z : T '.Y./.j.p m./.P.; h '.R.^.^.^.^.R.Y.Y.Y.L.L.L.J.J.J.J.J.U.m.m.~.U.U.U.E.i H :X-X:X:X:X:X",
":X:X:X:X:X:X:X:X:X:X:X:X:X;X-X:X-X:XF.> R.R.).r.  w.[.g - m././.E.^.E.~.^.Y.Y.Y.Y.Y.U.U.J.J.R.U.U.E.J.U.U.U.~.c.O F.:X;X:X:X:X:X",
":X:X:X:X:X:X:X:X:X:X:X:X;X:X:X:X-X-X:XV T {.Y.K.- I J   j.).~./.R.R.^.^.R.R.E.R.Y.U.U.m.J.R.P : 5 F m.U.U.m.'.F y :X;X:X:X:X:X:X",
":X:X:X:X:X:X:X:X:X:X:X:X:X:X;X:X:X:X:XoX* w.[.'.L   @ ..).Y.~./.R.R.E.R.^.U.Y.Y.R.Y.U.^.).T   v b   F /.U.E.c.+ F.:X;X:X;X:X:X:X",
":X:X:X:X:X:X:X:X:X:X:X:X:X:X:X:X:X:X=X:XC.- T k.s . X.).Y.E.E.E.E.^.R.R.E.R.R.R.Y.Y.U.K 7 o l 4.5.n % m.U./.a G :X;X;X:X:X:X:X:X",
":X:X:X:X:X:X:X:X:X:X:X:X:X:X:X:X:X:X:X:X;XOXs   ; j./.Y.E.E.Y.E.Y.Y.^.E.Y.E.R.Y.U.^.C   v l > %.3.#.. j.'.T : $X:X;X:X:X:X:X:X:X",
":X:X:X:X:X:X:X:X:X:X:X:X:X:X:X:X:X:X:X=X:XOX> q n.).~.Y.E.Y.E.E.^.E.E.Y.E.Y.Y.Y.^.x.O o.5.-.%.*.5.c % ^.w.o F.:X-X:X:X:X:X:X:X:X",
":X:X:X:X:X:X:X:X:X:X:X:X:X:X:X:X:X;X:X:X*X5 q U./.Y.^./.Y.E.Y.~.E.E.Y.E.E.Y.R.Y.R.n.% n 5.2.4.2.(   ] k.o p.:X=X:X:X:X:X:X:X:X:X",
":X:X:X:X:X:X:X:X:X:X:X:X:X:X:X:X:X:X-X:Xa.O U.E.U.R.U.Y.E.Y.Y./.Y.~.Y.Y.Y.R.R.U.K.R.P   z o.n 3 o !  .o p.:X=X:X:X:X:X:X:X:X:X:X",
":X:X:X:X:X:X:X:X:X:X:X:X:X:X:X:X:X:X-X:XY h '.U.R.U.R.Y.Y.R.Y.Y.Y.~.Y.E.U.~.U.U.K.K.Y.! > $ - V j.J - A.:X-X:X:X:X:X:X:X:X:X:X:X",
":X:X:X:X:X:X:X:X:X:X:X:X:X:X:X:X:X:X-X:XQ h Q.U.U.~.Y.Y.Y.Y.Y.U.U.E.U.~.U.U.U.U.K.K.m.^.m.n.^.w.r V +X:X-X;X:X:X:X:X:X:X:X:X:X:X",
":X:X:X:X:X:X:X:X:X:X:X:X:X:X:X:X:X;X;X:XG.; J.E.m.J.K.K.K.J.U.U.U.U.U.U.K.J.m.m.m.m.U.R.~.w.g w g.:X:X-X:X:X;X:X:X:X:X:X:X:X:X:X",
":X:X:X:X:X:X:X:X:X:X:X:X:X:X:X:X:X:X:X;X:XQ 5 w.E./.Y.U.m.m.J.m.U.m.m.m.m.~.R.~./.U.j.P e p i.*X:X=X;X:X:X:X:X:X:X:X:X:X:X:X:X:X",
":X:X:X:X:X:X:X:X:X:X:X:X:X:X:X:X:X:X:X;X;X:Xp.w p P w.t.b.m.Y.Y.Y.U.U.m.c.k.w.E A e q G A.*X:X:X:X:X:X:X:X:X:X:X:X:X:X:X:X:X:X:X",
":X:X:X:X:X:X:X:X:X:X:X:X:X:X:X:X:X:X:X:X:X;X:X%XV.Y s 9 6 9 q e e q 9 q w y s D ~ A.$X:X:X:X-X:X:X:X:X:X:X:X:X:X:X:X:X:X:X:X:X:X",
":X:X:X:X:X:X:X:X:X:X:X:X:X:X:X:X:X:X:X;X:X;X-X:X-X:X:X#XoXF.Z.C.Z.S.F.XX+X%X-X:X:X:X:X-X:X:X:X:X=X:X:X:X:X:X:X:X:X:X:X:X:X:X:X:X",
":X:X:X:X:X:X:X:X:X:X:X:X:X:X:X:X:X:X:X:X:X:X:X-X:X-X:X:X:X:X:X:X:X:X:X:X-X:X-X:X-X-X:X;X:X:X:X:X:X:X:X:X:X:X:X:X:X:X:X:X:X:X:X:X"
};
